:FULLY-SPECIFIED
:FORCE-ALL-JOINTS-BE-3DOF
:DEGREES
43
root 0.543412 17.2946 -13.6616 4.18582 -9.2465 -5.01991
lfemur -25.8894 14.7712 -9.18276
ltibia 111.871 -0 0
lfoot 15.0022 -4.50691 -0.0258158
ltoes -9.11211 0 0
rfemur -14.6526 3.2156 31.9748
rtibia 42.9357 -0 0
rfoot -15.461 -6.40737 -0.00138008
rtoes -7.98366 0 0
lowerback 18.4439 -0.788318 3.86303
upperback 2.28419 -0.098247 2.11288
thorax -7.86935 -0.141306 0.10678
lowerneck -1.39661 2.86795 0.848654
upperneck -16.5414 3.36724 -3.82945
head -4.63944 1.80407 -1.44732
lclavicle 3.77691e-15 4.21423e-14 0
lhumerus -47.6067 -11.0634 96.2541
lradius 104.004 -0 0
lwrist 34.0099 0 0
lhand -39.5087 13.9421 -0.00478316
lfingers 7.12502 -0 0
lthumb -12.4941 43.5479 -0.00448826
rclavicle 3.77691e-15 4.21423e-14 0
rhumerus -30.9984 12.5889 -88.1907
rradius 100.901 -0 0
rwrist -2.73383 0 0
rhand -44.6279 38.1263 -0
rfingers 7.12502 -0 0
rthumb -17.4116 8.86376 -7.23033e-08
44
root 0.544086 17.2984 -13.1222 4.05875 -8.89237 -4.7948
lfemur -25.6844 14.2658 -9.61884
ltibia 110.052 -0 0
lfoot 14.2391 -4.41199 -0.0503697
ltoes -9.28665 0 0
rfemur -14.6642 2.83127 31.5632
rtibia 44.5311 -0 0
rfoot -14.4711 -6.41123 -0.00269373
rtoes -7.14085 0 0
lowerback 18.432 -0.787748 3.63046
upperback 2.30073 -0.153689 1.99122
thorax -7.83986 -0.162887 0.120568
lowerneck -1.53258 2.77297 0.769258
upperneck -16.3432 3.271 -3.60757
head -4.56255 1.74809 -1.36307
lclavicle 3.77691e-15 4.21423e-14 0
lhumerus -47.0447 -11.2187 96.0078
lradius 104.076 -0 0
lwrist 33.8918 0 0
lhand -39.4232 13.7821 -0.00932747
lfingers 7.12502 -0 0
lthumb -12.4116 43.3922 -0.00875236
rclavicle 3.77691e-15 4.21423e-14 0
rhumerus -31.4264 12.4193 -88.1363
rradius 100.36 -0 0
rwrist -2.63561 0 0
rhand -44.6279 38.1263 -0
rfingers 7.12502 -0 0
rthumb -17.4119 8.86435 -1.40992e-07
45
root 0.54476 17.3022 -12.5829 3.9332 -8.53776 -4.5707
lfemur -25.476 13.7618 -10.0558
ltibia 108.233 -0 0
lfoot 13.476 -4.31675 -0.0736572
ltoes -9.46119 0 0
rfemur -14.673 2.44687 31.1517
rtibia 46.1266 -0 0
rfoot -13.4811 -6.41511 -0.00394054
rtoes -6.29803 0 0
lowerback 18.42 -0.787227 3.3979
upperback 2.3174 -0.209095 1.86954
thorax -7.81037 -0.184475 0.134344
lowerneck -1.66841 2.6778 0.690094
upperneck -16.1454 3.174 -3.38605
head -4.48574 1.692 -1.27889
lclavicle 3.77691e-15 4.21423e-14 0
lhumerus -46.4818 -11.3716 95.7599
lradius 104.149 -0 0
lwrist 33.7736 0 0
lhand -39.3377 13.622 -0.0136329
lfingers 7.12502 -0 0
lthumb -12.3292 43.2364 -0.0127923
rclavicle 3.77691e-15 4.21423e-14 0
rhumerus -31.8543 12.25 -88.0807
rradius 99.8178 -0 0
rwrist -2.53738 0 0
rhand -44.6279 38.1263 -0
rfingers 7.12502 -0 0
rthumb -17.4123 8.86494 -2.06065e-07
46
root 0.545434 17.306 -12.0436 3.80917 -8.18267 -4.34759
lfemur -25.264 13.2594 -10.4938
ltibia 106.414 -0 0
lfoot 12.7129 -4.22121 -0.0956743
ltoes -9.63573 0 0
rfemur -14.6791 2.06242 30.7405
rtibia 47.722 -0 0
rfoot -12.4912 -6.41901 -0.00512016
rtoes -5.45521 0 0
lowerback 18.4081 -0.786754 3.16534
upperback 2.33418 -0.264466 1.74785
thorax -7.78089 -0.20607 0.148109
lowerneck -1.80409 2.58244 0.611162
upperneck -15.948 3.07623 -3.16488
head -4.40902 1.6358 -1.19479
lclavicle 3.77691e-15 4.21423e-14 0
lhumerus -45.918 -11.5221 95.5104
lradius 104.221 -0 0
lwrist 33.6555 0 0
lhand -39.2521 13.4619 -0.0176993
lfingers 7.12502 -0 0
lthumb -12.2466 43.0807 -0.016608
rclavicle 3.77691e-15 4.21423e-14 0
rhumerus -32.2821 12.0812 -88.0238
rradius 99.276 -0 0
rwrist -2.43915 0 0
rhand -44.6279 38.1263 -0
rfingers 7.12502 -0 0
rthumb -17.4126 8.86553 -2.67522e-07
47
root 0.546108 17.3098 -11.5043 3.68664 -7.82711 -4.12545
lfemur -25.0486 12.7586 -10.9327
ltibia 104.595 -0 0
lfoot 11.9497 -4.12538 -0.116417
ltoes -9.81027 0 0
rfemur -14.6823 1.67793 30.3293
rtibia 49.3175 -0 0
rfoot -11.5012 -6.42293 -0.00623222
rtoes -4.6124 0 0
lowerback 18.3961 -0.786329 2.93278
upperback 2.35108 -0.319802 1.62614
thorax -7.75142 -0.227672 0.161864
lowerneck -1.93963 2.4869 0.532462
upperneck -15.751 2.97771 -2.94407
head -4.33239 1.57948 -1.11076
lclavicle 3.77691e-15 4.21423e-14 0
lhumerus -45.3531 -11.6702 95.2592
lradius 104.294 -0 0
lwrist 33.5374 0 0
lhand -39.1666 13.3019 -0.0215268
lfingers 7.12502 -0 0
lthumb -12.1641 42.925 -0.0201994
rclavicle 3.77691e-15 4.21423e-14 0
rhumerus -32.7098 11.9128 -87.9657
rradius 98.7343 -0 0
rwrist -2.34093 0 0
rhand -44.6279 38.1263 -0
rfingers 7.12502 -0 0
rthumb -17.413 8.86612 -3.25365e-07
48
root 0.546782 17.3136 -10.9649 3.56561 -7.47107 -3.90426
lfemur -24.8296 12.2595 -11.3728
ltibia 102.777 -0 0
lfoot 11.1865 -4.02929 -0.135881
ltoes -9.98481 0 0
rfemur -14.6828 1.29343 29.9183
rtibia 50.913 -0 0
rfoot -10.5113 -6.42687 -0.00727639
rtoes -3.76958 0 0
lowerback 18.3842 -0.785953 2.70021
upperback 2.36809 -0.375101 1.50441
thorax -7.72194 -0.249282 0.175607
lowerneck -2.07504 2.39117 0.453994
upperneck -15.5544 2.87843 -2.72362
head -4.25584 1.52305 -1.02682
lclavicle 3.77691e-15 4.21423e-14 0
lhumerus -44.7874 -11.8158 95.0064
lradius 104.367 -0 0
lwrist 33.4193 0 0
lhand -39.081 13.1418 -0.0251152
lfingers 7.12502 -0 0
lthumb -12.0816 42.7692 -0.0235665
rclavicle 3.77691e-15 4.21423e-14 0
rhumerus -33.1375 11.7449 -87.9063
rradius 98.1925 -0 0
rwrist -2.2427 0 0
rhand -44.6279 38.1263 -0
rfingers 7.12502 -0 0
rthumb -17.4133 8.86671 -3.79593e-07
